HIERARCHY
ROOT Hips
{
	OFFSET 0.000000 0.000000 0.000000
	CHANNELS 6 Xposition Yposition Zposition Zrotation Yrotation Xrotation 
	JOINT LHipJoint
	{
		OFFSET 0.000000 0.000000 0.000000
		CHANNELS 3 Zrotation Yrotation Xrotation
		JOINT LeftUpLeg
		{
			OFFSET 1.363060 -1.794630 0.839290
			CHANNELS 3 Zrotation Yrotation Xrotation
			JOINT LeftLeg
			{
				OFFSET 2.448110 -6.726130 0.000000
				CHANNELS 3 Zrotation Yrotation Xrotation
				JOINT LeftFoot
				{
					OFFSET 2.562200 -7.039590 0.000000
					CHANNELS 3 Zrotation Yrotation Xrotation
					JOINT LeftToeBase
					{
						OFFSET 0.157640 -0.433110 2.322550
						CHANNELS 3 Zrotation Yrotation Xrotation
						End Site
						{
							OFFSET 0.000000 0.000000 0.000000
						}
					}
				}
			}
		}
	}
	JOINT RHipJoint
	{
		OFFSET 0.000000 0.000000 0.000000
		CHANNELS 3 Zrotation Yrotation Xrotation
		JOINT RightUpLeg
		{
			OFFSET -1.305520 -1.794630 0.839290
			CHANNELS 3 Zrotation Yrotation Xrotation
			JOINT RightLeg
			{
				OFFSET -2.542530 -6.985550 0.000000
				CHANNELS 3 Zrotation Yrotation Xrotation
				JOINT RightFoot
				{
					OFFSET -2.568260 -7.056230 0.000000
					CHANNELS 3 Zrotation Yrotation Xrotation
					JOINT RightToeBase
					{
						OFFSET -0.164730 -0.452590 2.363150
						CHANNELS 3 Zrotation Yrotation Xrotation
						End Site
						{
							OFFSET 0.000000 0.000000 0.000000
						}
					}
				}
			}
		}
	}
	JOINT LowerBack
	{
		OFFSET 0.000000 0.000000 0.000000
		CHANNELS 3 Zrotation Yrotation Xrotation
		JOINT Spine
		{
			OFFSET 0.028270 2.035590 -0.193380
			CHANNELS 3 Zrotation Yrotation Xrotation
			JOINT Spine1
			{
				OFFSET 0.056720 2.048850 -0.042750
				CHANNELS 3 Zrotation Yrotation Xrotation
				JOINT Neck
				{
					OFFSET 0.000000 0.000000 0.000000
					CHANNELS 3 Zrotation Yrotation Xrotation
					JOINT Neck1
					{
						OFFSET -0.054170 1.746240 0.172020
						CHANNELS 3 Zrotation Yrotation Xrotation
						JOINT Head
						{
							OFFSET 0.104070 1.761360 -0.123970
							CHANNELS 3 Zrotation Yrotation Xrotation
							End Site
							{
								OFFSET 0.000000 0.000000 0.000000
							}
						}
					}
				}
				JOINT LeftShoulder
				{
					OFFSET 0.000000 0.000000 0.000000
					CHANNELS 3 Zrotation Yrotation Xrotation
					JOINT LeftArm
					{
						OFFSET 3.362410 1.200890 -0.311210
						CHANNELS 3 Zrotation Yrotation Xrotation
						JOINT LeftForeArm
						{
							OFFSET 4.983000 -0.000000 -0.000000
							CHANNELS 3 Zrotation Yrotation Xrotation
							JOINT LeftHand
							{
								OFFSET 3.483560 -0.000000 -0.000000
								CHANNELS 3 Zrotation Yrotation Xrotation
								JOINT LeftFingerBase
								{
									OFFSET 0.000000 0.000000 0.000000
									CHANNELS 3 Zrotation Yrotation Xrotation
									JOINT LeftHandIndex1
									{
										OFFSET 0.715260 -0.000000 -0.000000
										CHANNELS 3 Zrotation Yrotation Xrotation
										End Site
										{
											OFFSET 0.000000 0.000000 0.000000
										}
									}
								}
								JOINT LThumb
								{
									OFFSET 0.000000 0.000000 0.000000
									CHANNELS 3 Zrotation Yrotation Xrotation
									End Site
									{
										OFFSET 0.000000 0.000000 0.000000
									}
								}
							}
						}
					}
				}
				JOINT RightShoulder
				{
					OFFSET 0.000000 0.000000 0.000000
					CHANNELS 3 Zrotation Yrotation Xrotation
					JOINT RightArm
					{
						OFFSET -3.136600 1.374050 -0.404650
						CHANNELS 3 Zrotation Yrotation Xrotation
						JOINT RightForeArm
						{
							OFFSET -5.241900 -0.000000 -0.000000
							CHANNELS 3 Zrotation Yrotation Xrotation
							JOINT RightHand
							{
								OFFSET -3.444170 -0.000000 -0.000000
								CHANNELS 3 Zrotation Yrotation Xrotation
								JOINT RightFingerBase
								{
									OFFSET 0.000000 0.000000 0.000000
									CHANNELS 3 Zrotation Yrotation Xrotation
									JOINT RightHandIndex1
									{
										OFFSET -0.622530 -0.000000 -0.000000
										CHANNELS 3 Zrotation Yrotation Xrotation
										End Site
										{
											OFFSET 0.000000 0.000000 0.000000
										}
									}
								}
								JOINT RThumb
								{
									OFFSET 0.000000 0.000000 0.000000
									CHANNELS 3 Zrotation Yrotation Xrotation
									End Site
									{
										OFFSET 0.000000 0.000000 0.000000
									}
								}
							}
						}
					}
				}
			}
		}
	}
}
MOTION
Frames: 12
Frame Time: 0.008333
0.354023 18.060038 -6.088340 1.753068 7.260308 4.278324 -5.090167 -1.166877 1.581557 -8.567159 -2.664962 -2.384225 2.386553 11.707199 31.241390 -4.071556 19.490357 7.562963 0.811700 -5.749200 -16.058400 3.763284 1.855539 -0.602631 8.940553 -2.139730 -21.362004 -1.499990 -9.532045 25.306161 3.667410 -16.307745 0.502173 -0.090000 1.935000 -5.325900 0.177843 -0.180280 11.502906 5.309441 0.151905 1.500259 4.995093 -0.062732 -3.639955 3.174896 -0.512941 -27.372671 -5.875021 0.791307 22.276628 -5.919100 -0.011500 15.361400 3.490759 -0.315723 0.067580 -41.282273 -3.768970 -28.372887 25.583288 -35.839716 -7.295477 0.500772 0.544842 -8.947178 23.025229 -2.339964 -1.178400 -7.125000 0.000000 0.000000 -3.174200 26.889300 1.397400 -2.739391 1.241733 0.305940 52.572061 7.817179 -37.171608 -13.772117 21.260244 -2.590776 -0.147554 -0.401356 9.795208 -25.371741 1.353000 -0.860000 7.125000 0.000000 0.000000 0.991800 -27.966200 0.410900 
0.321234 18.065900 -6.015806 1.781303 7.109983 4.233100 -5.068137 -1.182521 1.543705 -8.478312 -2.559596 -2.696233 2.581850 11.955127 32.062657 -3.967783 19.355895 8.270151 0.800100 -5.709200 -15.943100 3.761457 1.852090 -0.577566 9.082026 -2.213857 -21.166969 -1.503931 -9.546771 25.362489 3.619255 -16.138476 0.481708 -0.081300 1.839400 -5.062100 0.335225 -0.173549 11.548241 5.369389 0.184020 1.489049 4.955182 -0.044697 -3.674638 3.198386 -0.451520 -27.393774 -6.053454 0.913950 22.299167 -5.989600 0.017500 15.402300 3.494814 -0.321018 0.069986 -41.273193 -3.776584 -28.440780 25.559840 -35.815402 -7.283329 0.501419 0.544265 -8.900031 23.035301 -2.342817 -1.180100 -7.125000 0.000000 0.000000 -3.166500 26.886200 1.394200 -2.737845 1.240272 0.298982 52.950466 7.906012 -37.343756 -13.863706 21.397623 -2.626973 -0.148206 -0.401284 9.897413 -25.632429 1.384949 -0.886000 7.125000 0.000000 0.000000 0.790400 -27.925300 0.328200 
0.290134 18.070471 -5.943968 1.803825 6.960225 4.174523 -5.045652 -1.195726 1.508084 -8.387833 -2.459358 -2.977813 2.776409 12.193474 32.857500 -3.858184 19.233282 9.033769 0.791200 -5.678000 -15.853000 3.758652 1.848220 -0.552458 9.223962 -2.306423 -20.971542 -1.509980 -9.565649 25.430562 3.567824 -15.959349 0.472508 -0.073000 1.742700 -4.795000 0.497969 -0.172438 11.607942 5.431701 0.210650 1.480619 4.917545 -0.030018 -3.713763 3.220538 -0.392432 -27.412883 -6.222244 1.033544 22.331005 -6.056000 0.046800 15.447100 3.498441 -0.326119 0.071888 -41.293000 -3.747965 -28.485716 25.544794 -35.799210 -7.275649 0.501515 0.544373 -8.845152 23.037468 -2.319112 -1.170700 -7.125000 0.000000 0.000000 -3.165000 26.911100 1.391700 -2.736282 1.239557 0.292555 53.296967 8.013567 -37.565848 -13.949514 21.526072 -2.661100 -0.149739 -0.400241 10.148488 -25.910866 1.451760 -0.929800 7.125000 0.000000 0.000000 0.575600 -27.845600 0.240100 
0.260425 18.074048 -5.872826 1.794143 6.791754 4.100322 -5.021916 -1.205283 1.475959 -8.266895 -2.354502 -3.228441 2.970110 12.420990 33.620880 -3.744942 19.136549 9.862437 0.784700 -5.655100 -15.786800 3.756062 1.843879 -0.528361 9.393606 -2.375697 -20.765847 -1.516965 -9.588387 25.508478 3.517851 -15.785800 0.456068 -0.064200 1.634800 -4.497300 0.686910 -0.173344 11.686737 5.503726 0.239940 1.471366 4.876355 -0.014462 -3.765896 3.199285 -0.348913 -27.388484 -6.359596 1.139582 22.344735 -6.100000 0.070000 15.470100 3.502064 -0.331787 0.073536 -41.338279 -3.682761 -28.517199 25.532084 -35.784558 -7.268956 0.501196 0.544034 -8.791362 23.019271 -2.311762 -1.166700 -7.125000 0.000000 0.000000 -3.178400 26.919200 1.397000 -2.734734 1.238790 0.286640 53.617412 8.136754 -37.787739 -14.023360 21.637122 -2.690882 -0.152029 -0.398160 10.532505 -26.182775 1.558639 -0.993400 7.125000 0.000000 0.000000 0.366500 -27.721800 0.154000 
0.232604 18.076631 -5.801684 1.785693 6.606748 4.015099 -4.999011 -1.212021 1.447098 -8.154163 -2.250251 -3.437002 3.159934 12.635597 34.341440 -3.630538 19.087208 10.765711 0.791800 -5.680000 -15.858600 3.752645 1.838715 -0.504899 9.552700 -2.438788 -20.552382 -1.525617 -9.615135 25.597764 3.463901 -15.597939 0.438098 -0.055000 1.513800 -4.163800 0.876743 -0.174572 11.767963 5.572883 0.269151 1.466599 4.831828 0.000719 -3.814794 3.213432 -0.287759 -27.362643 -6.512429 1.258887 22.361716 -6.155400 0.101000 15.497500 3.505910 -0.338795 0.075085 -41.401265 -3.593113 -28.534543 25.525614 -35.776045 -7.265664 0.500504 0.544806 -8.735969 23.003052 -2.266592 -1.147800 -7.125000 0.000000 0.000000 -3.190700 26.966900 1.398900 -2.732870 1.237338 0.280980 53.928597 8.266641 -37.936652 -14.087643 21.735396 -2.717060 -0.154618 -0.395477 10.974825 -26.429889 1.697280 -1.072500 7.125000 0.000000 0.000000 0.177600 -27.563100 0.075300 
0.206472 18.078320 -5.730641 1.778930 6.402926 3.929692 -4.977640 -1.216227 1.421207 -8.046615 -2.145603 -3.613935 3.344639 12.836033 35.012671 -3.514548 19.094659 11.754939 0.809700 -5.742600 -16.039300 3.748946 1.833092 -0.482962 9.701253 -2.483893 -20.338921 -1.535691 -9.644890 25.695704 3.408023 -15.403257 0.424453 -0.045500 1.376400 -3.785000 1.071102 -0.173486 11.830216 5.639350 0.301212 1.468182 4.782284 0.016238 -3.846981 3.198098 -0.243426 -27.297089 -6.637378 1.361904 22.390777 -6.194400 0.127300 15.518600 3.509357 -0.344563 0.076288 -41.481519 -3.503964 -28.552157 25.516399 -35.765404 -7.261554 0.500115 0.546140 -8.723757 23.004662 -2.215772 -1.127500 -7.125000 0.000000 0.000000 -3.190000 27.020200 1.394600 -2.731562 1.236361 0.275637 54.233462 8.411155 -38.014577 -14.134149 21.809149 -2.736951 -0.157557 -0.392259 11.439829 -26.663821 1.861301 -1.165000 7.125000 0.000000 0.000000 0.000100 -27.376200 -0.000000 
0.181830 18.079612 -5.659101 1.788990 6.178355 3.853221 -4.959041 -1.218442 1.398123 -7.958306 -2.042968 -3.763884 3.520821 13.019933 35.624081 -3.396589 19.159338 12.817484 0.835200 -5.830100 -16.292200 3.745030 1.827344 -0.463181 9.822844 -2.502907 -20.129055 -1.547781 -9.678238 25.804682 3.351446 -15.204735 0.409380 -0.036400 1.231600 -3.386200 1.250723 -0.168813 11.880120 5.699288 0.335791 1.467811 4.735204 0.032360 -3.874102 3.161166 -0.210139 -27.270309 -6.735296 1.460907 22.455048 -6.219900 0.153500 15.564600 3.511753 -0.347524 0.076653 -41.577224 -3.402136 -28.558108 25.506222 -35.753580 -7.257299 0.500188 0.547352 -8.735500 23.022204 -2.178980 -1.113700 -7.125000 0.000000 0.000000 -3.177400 27.058400 1.386200 -2.731428 1.238938 0.271299 54.539897 8.532852 -37.908530 -14.170811 21.869861 -2.752507 -0.159873 -0.389176 11.830567 -26.797094 2.047700 -1.264700 7.125000 0.000000 0.000000 -0.099100 -27.166200 -0.042900 
0.158580 18.080407 -5.587660 1.813736 5.934723 3.790193 -4.943155 -1.220083 1.377642 -7.882720 -1.934290 -3.896962 3.686335 13.186013 36.174637 -3.273510 19.257493 13.921326 0.871500 -5.952200 -16.645700 3.740701 1.821099 -0.445763 9.921628 -2.496017 -19.930783 -1.561518 -9.714658 25.923084 3.293725 -15.001367 0.398978 -0.028600 1.091700 -3.001100 1.420384 -0.155998 11.909424 5.756104 0.378176 1.467072 4.688007 0.053037 -3.891286 3.184725 -0.139700 -27.219842 -6.895660 1.589537 22.462441 -6.278100 0.188800 15.584200 3.516320 -0.356446 0.078237 -41.691649 -3.314100 -28.572481 25.483603 -35.728527 -7.246548 0.500606 0.547807 -8.766949 23.039438 -2.171547 -1.111600 -7.125000 0.000000 0.000000 -3.164900 27.066100 1.380100 -2.729558 1.235436 0.266472 54.845148 8.648044 -37.650748 -14.193968 21.912687 -2.763135 -0.161272 -0.386916 12.090132 -26.866572 2.189086 -1.339100 7.125000 0.000000 0.000000 -0.149700 -27.007800 -0.065400 
0.137118 18.080904 -5.515624 1.873544 5.678642 3.739840 -4.930686 -1.221939 1.359640 -7.844397 -1.827102 -4.007213 3.837255 13.333506 36.660894 -3.144032 19.364641 15.023787 0.916700 -6.100300 -17.075800 3.735207 1.814512 -0.429879 9.974729 -2.487391 -19.745017 -1.577408 -9.753990 26.051855 3.230623 -14.775963 0.388861 -0.022900 0.976200 -2.683400 1.568954 -0.137595 11.916970 5.804561 0.423234 1.464699 4.643348 0.075882 -3.898836 3.233862 -0.047233 -27.142491 -7.089419 1.738072 22.428273 -6.350800 0.229900 15.581600 3.522017 -0.369904 0.080540 -41.831589 -3.209338 -28.549630 25.467600 -35.709151 -7.238959 0.500463 0.547423 -8.828965 23.028447 -2.202232 -1.123300 -7.125000 0.000000 0.000000 -3.173100 27.034100 1.386100 -2.726525 1.228508 0.261585 55.150635 8.749938 -37.236218 -14.208177 21.944001 -2.770409 -0.161533 -0.385820 12.158951 -26.868769 2.283257 -1.386200 7.125000 0.000000 0.000000 -0.149500 -26.903400 -0.065700 
0.117246 18.080804 -5.443488 1.944848 5.407079 3.701110 -4.920293 -1.223929 1.344482 -7.816729 -1.719668 -4.102159 3.972033 13.462135 37.086871 -3.004192 19.439328 16.090848 0.966500 -6.259200 -17.538300 3.729310 1.807802 -0.416319 10.007982 -2.451549 -19.568541 -1.595099 -9.796703 26.191416 3.167470 -14.547138 0.361865 -0.019400 0.898500 -2.469600 1.712773 -0.114201 11.907502 5.855614 0.472727 1.464277 4.603416 0.101385 -3.895467 3.309414 0.071323 -27.057866 -7.333183 1.916896 22.353552 -6.445100 0.278500 15.564400 3.529332 -0.387578 0.083703 -42.002384 -3.120268 -28.551125 25.437242 -35.674829 -7.223738 0.500021 0.546467 -8.863753 22.997756 -2.232983 -1.133700 -7.125000 0.000000 0.000000 -3.195900 27.003000 1.398400 -2.722042 1.217388 0.256509 55.451954 8.842832 -36.672280 -14.220520 21.973532 -2.776864 -0.160501 -0.386042 12.052190 -26.803283 2.315679 -1.398400 7.125000 0.000000 0.000000 -0.099000 -26.869300 -0.043600 
0.098765 18.079910 -5.370855 2.030451 5.130505 3.665077 -4.911436 -1.225874 1.332779 -7.804443 -1.620673 -4.167566 4.087653 13.571867 37.454251 -2.848256 19.438615 17.102621 1.021900 -6.430900 -18.040000 3.722745 1.800631 -0.404252 10.019055 -2.397221 -19.389709 -1.614715 -9.843057 26.342280 3.106421 -14.321507 0.303942 -0.018100 0.867500 -2.384400 1.848803 -0.088229 11.879243 5.909704 0.523028 1.469582 4.570965 0.127557 -3.875708 3.411893 0.215122 -26.957650 -7.621388 2.125870 22.254225 -6.558600 0.336500 15.539100 3.537715 -0.408785 0.087539 -42.205640 -3.036781 -28.546499 25.405466 -35.639078 -7.208107 0.499102 0.546143 -8.890932 22.960623 -2.231166 -1.130600 -7.125000 0.000000 0.000000 -3.223800 27.006400 1.410400 -2.716266 1.203088 0.251211 55.753011 8.932675 -36.037200 -14.232240 22.002673 -2.782839 -0.158683 -0.386973 11.841210 -26.690428 2.318176 -1.392700 7.125000 0.000000 0.000000 -0.013100 -26.869900 -0.005700 
0.081675 18.078320 -5.298023 2.119642 4.852118 3.633901 -4.903607 -1.227263 1.324265 -7.796875 -1.543693 -4.205403 4.183898 13.663836 37.768123 -2.679114 19.351913 18.041007 1.075000 -6.590600 -18.507900 3.716157 1.793596 -0.394275 10.019825 -2.311930 -19.209767 -1.636738 -9.893472 26.505942 3.052715 -14.116700 0.201805 -0.018300 0.874400 -2.403200 1.988126 -0.059777 11.843479 5.969130 0.577188 1.469872 4.543832 0.155512 -3.857613 3.459209 0.336883 -26.851319 -7.886437 2.325439 22.167261 -6.652800 0.388300 15.516600 3.545533 -0.428005 0.091069 -42.437488 -2.961955 -28.526859 25.369118 -35.598624 -7.190249 0.498102 0.545066 -8.917888 22.914098 -2.246815 -1.133900 -7.125000 0.000000 0.000000 -3.258400 26.992100 1.426700 -2.711069 1.190204 0.246065 56.050937 9.031403 -35.467400 -14.231697 22.014216 -2.783897 -0.156970 -0.387383 11.671143 -26.530397 2.341931 -1.394400 7.125000 0.000000 0.000000 0.109300 -26.848600 0.048100 
